<?xml version="1.0" encoding="UTF-8" standalone="no"?>
<svg
   xmlns:dc="http://purl.org/dc/elements/1.1/"
   xmlns:cc="http://creativecommons.org/ns#"
   xmlns:rdf="http://www.w3.org/1999/02/22-rdf-syntax-ns#"
   xmlns:svg="http://www.w3.org/2000/svg"
   xmlns="http://www.w3.org/2000/svg"
   xmlns:xlink="http://www.w3.org/1999/xlink"
   xmlns:sodipodi="http://sodipodi.sourceforge.net/DTD/sodipodi-0.dtd"
   xmlns:inkscape="http://www.inkscape.org/namespaces/inkscape"
   data-v-3c4d2caf=""
   version="1.0"
   width="100%"
   height="100%"
   viewBox="0 0 340 170"
   preserveAspectRatio="xMidYMid meet"
   class="el-tooltip"
   style="color-interpolation-filters:sRGB"
   id="svg29"
   sodipodi:docname="logo.svg"
   inkscape:export-filename="/home/mubaris/Documents/Logos/Go Students/media/logo_semilong.png"
   inkscape:export-xdpi="1000"
   inkscape:export-ydpi="1000"
   inkscape:version="0.92.2 5c3e80d, 2017-08-06">
  <metadata
     id="metadata35">
    <rdf:RDF>
      <cc:Work
         rdf:about="">
        <dc:format>image/svg+xml</dc:format>
        <dc:type
           rdf:resource="http://purl.org/dc/dcmitype/StillImage" />
        <dc:title />
      </cc:Work>
    </rdf:RDF>
  </metadata>
  <defs
     id="defs33">
    <linearGradient
       inkscape:collect="always"
       id="linearGradient4527">
      <stop
         style="stop-color:#27d0dd;stop-opacity:1"
         offset="0"
         id="stop4523" />
      <stop
         style="stop-color:#35bce0;stop-opacity:1"
         offset="1"
         id="stop4525" />
    </linearGradient>
    <linearGradient
       inkscape:collect="always"
       id="linearGradient1095">
      <stop
         style="stop-color:#17ead9;stop-opacity:1"
         offset="0"
         id="stop1091" />
      <stop
         style="stop-color:#6078ea;stop-opacity:1"
         offset="1"
         id="stop1093" />
    </linearGradient>
    <linearGradient
       inkscape:collect="always"
       xlink:href="#linearGradient1095"
       id="linearGradient4521"
       gradientUnits="userSpaceOnUse"
       x1="0"
       y1="0"
       x2="340"
       y2="250"
       gradientTransform="scale(1,1.0025963)" />
    <linearGradient
       inkscape:collect="always"
       xlink:href="#linearGradient4527"
       id="linearGradient4529"
       x1="4.5999999"
       y1="4.5999999"
       x2="41.399998"
       y2="41.399998"
       gradientUnits="userSpaceOnUse" />
  </defs>
  <sodipodi:namedview
     pagecolor="#ffffff"
     bordercolor="#666666"
     borderopacity="1"
     objecttolerance="10"
     gridtolerance="10"
     guidetolerance="10"
     inkscape:pageopacity="0"
     inkscape:pageshadow="2"
     inkscape:window-width="1366"
     inkscape:window-height="717"
     id="namedview31"
     showgrid="false"
     inkscape:zoom="0.944"
     inkscape:cx="-36.101691"
     inkscape:cy="40.254233"
     inkscape:window-x="0"
     inkscape:window-y="25"
     inkscape:window-maximized="1"
     inkscape:current-layer="svg29" />
  <rect
     data-v-3c4d2caf=""
     x="0"
     y="0"
     width="99.999992%"
     height="100.25964%"
     id="rect2"
     style="fill:url(#linearGradient4521);fill-opacity:1;stroke-width:1.00129735" />
  <g
     id="g66"
     transform="translate(-4e-7,-85)">
    <g
       transform="translate(51.775094,147)"
       id="g13"
       style="display:inline;opacity:1;fill:#ffffff">
      <rect
         x="0"
         y="0"
         width="46"
         height="46"
         id="rect4"
         style="display:inline;opacity:1;fill:#ffffff;fill-opacity:1;stroke:none;stroke-opacity:1" />
      <!-- <image
       style="display:inline;opacity:1;filter:url(#colors9769648806)"
       id="image6"
       height="36.799999"
       width="36.799999"
       y="4.5999999"
       x="4.5999999"
       xlink:href="https://d30y9cdsu7xlg0.cloudfront.net/png/158892-200.png" /> -->
      <rect
         x="4.5999999"
         y="4.5999999"
         width="36.799999"
         height="36.799999"
         id="rect6"
         style="display:inline;opacity:1;fill:url(#linearGradient4529);fill-opacity:1;stroke:none;stroke-opacity:1" />
      <defs
         id="defs11">
        <filter
           height="1.024"
           y="-0.012"
           width="1.024"
           x="-0.012"
           id="colors9769648806">
          <feColorMatrix
             type="matrix"
             values="0 0 0 0 0.0078125  0 0 0 0 0.0078125  0 0 0 0 0.0078125  0 0 0 1 0"
             id="feColorMatrix8" />
        </filter>
      </defs>
    </g>
    <g
       transform="translate(105.11857,157.845)"
       id="g25"
       style="display:inline;fill:#ffffff">
      <g
         id="g23">
        <g
           id="g17">
          <path
             transform="translate(-0.74063703,23.893595)"
             d="m 17.13,-5.7 v -5.83 h 5.09 v 8.99 0 q -1.8,1.32 -4.43,2.14 v 0 0 q -2.62,0.82 -4.97,0.82 v 0 0 q -3.42,0 -6.17,-1.53 v 0 0 Q 3.9,-2.64 2.32,-5.31 v 0 0 Q 0.74,-7.99 0.74,-11.3 v 0 0 q 0,-3.29 1.63,-5.94 v 0 0 q 1.62,-2.66 4.47,-4.17 v 0 0 q 2.85,-1.52 6.36,-1.52 v 0 0 q 2.51,0 5.03,0.92 v 0 0 q 2.51,0.92 4.25,2.46 v 0 l -3.35,4.13 v 0 q -1.23,-1.16 -2.82,-1.84 v 0 0 q -1.59,-0.68 -3.14,-0.68 v 0 0 q -1.8,0 -3.25,0.87 v 0 0 q -1.45,0.87 -2.29,2.39 v 0 0 q -0.84,1.51 -0.84,3.38 v 0 0 q 0,1.9 0.84,3.43 v 0 0 q 0.84,1.53 2.32,2.4 v 0 0 q 1.48,0.87 3.28,0.87 v 0 0 q 1.71,0 3.9,-1.1 z M 34.2,-17.61 v 0 q 2.83,0 4.99,1.11 v 0 0 q 2.16,1.11 3.35,3.12 v 0 0 q 1.19,2.01 1.19,4.65 v 0 0 q 0,2.68 -1.19,4.69 v 0 0 q -1.19,2.01 -3.35,3.12 v 0 0 Q 37.03,0.19 34.2,0.19 v 0 0 q -2.84,0 -4.99,-1.11 v 0 0 q -2.16,-1.11 -3.34,-3.12 v 0 0 Q 24.7,-6.05 24.7,-8.73 v 0 0 q 0,-2.64 1.17,-4.65 v 0 0 q 1.18,-2.01 3.34,-3.12 v 0 0 q 2.15,-1.11 4.99,-1.11 v 0 m 0,4.63 v 0 q -1.68,0 -2.71,1.19 v 0 0 q -1.03,1.2 -1.03,3.13 v 0 0 q 0,1.96 1.03,3.15 v 0 0 q 1.03,1.19 2.71,1.19 v 0 0 q 1.7,0 2.74,-1.19 v 0 0 q 1.03,-1.19 1.03,-3.15 v 0 0 q 0,-1.93 -1.05,-3.13 v 0 0 q -1.05,-1.19 -2.72,-1.19 z"
             id="path15"
             inkscape:connector-curvature="0" />
        </g>
        <g
           transform="translate(45.989998)"
           id="g21">
          <path
             transform="translate(-1.2236612,23.893595)"
             d="m 15.68,-19.64 v 0 q -1.22,-0.81 -2.8,-1.23 v 0 0 q -1.58,-0.42 -3.09,-0.42 v 0 0 q -2.67,0 -4.28,1.07 v 0 0 q -1.61,1.06 -1.61,2.83 v 0 0 q 0,1.55 0.82,2.51 v 0 0 q 0.82,0.97 2.03,1.5 v 0 0 q 1.2,0.53 3.26,1.18 v 0 0 q 2.29,0.67 3.71,1.32 v 0 0 q 1.41,0.64 2.38,1.9 v 0 0 q 0.97,1.25 0.97,3.25 v 0 0 q 0,1.74 -0.97,3.07 v 0 0 q -0.97,1.34 -2.74,2.06 v 0 0 Q 11.59,0.13 9.24,0.13 v 0 0 q -2.22,0 -4.38,-0.9 v 0 0 Q 2.7,-1.67 1.22,-3.16 v 0 l 0.71,-1.19 v 0 q 1.35,1.45 3.35,2.27 v 0 0 q 2,0.82 3.99,0.82 v 0 0 q 2.93,0 4.64,-1.2 v 0 0 q 1.71,-1.21 1.71,-3.24 v 0 0 q 0,-1.58 -0.84,-2.56 v 0 0 Q 13.94,-9.24 12.7,-9.79 v 0 0 q -1.24,-0.55 -3.3,-1.16 v 0 0 q -2.32,-0.71 -3.68,-1.33 v 0 0 Q 4.35,-12.91 3.4,-14.14 v 0 0 q -0.95,-1.22 -0.95,-3.18 v 0 0 q 0,-1.61 0.92,-2.84 v 0 0 q 0.91,-1.22 2.6,-1.88 v 0 0 q 1.69,-0.66 3.88,-0.66 v 0 0 q 1.71,0 3.43,0.5 v 0 0 q 1.73,0.5 3.01,1.33 v 0 z m 14.33,17.39 0.52,1.09 v 0 q -1.77,1.19 -3.58,1.19 v 0 0 q -1.8,0 -2.77,-1.17 v 0 0 q -0.96,-1.18 -0.96,-3.5 v 0 -10.56 h -2.45 v -1.16 h 2.45 v -4.15 h 1.29 v 4.15 h 5.7 v 1.16 h -5.7 v 10.4 0 q 0,3.51 2.6,3.51 v 0 0 q 1.49,0 2.9,-0.96 z m 17.2,-14.53 h 1.32 V 0 h -1.32 v -4.48 0 q -0.81,2.19 -2.53,3.34 v 0 0 Q 42.96,0 40.48,0.03 v 0 0 q -3.03,0 -4.72,-1.74 v 0 0 q -1.69,-1.74 -1.69,-4.83 v 0 -10.24 h 1.32 v 9.99 0 q 0,2.57 1.42,4.02 v 0 0 q 1.41,1.45 3.96,1.45 v 0 0 q 3.02,-0.06 4.73,-2 v 0 0 q 1.71,-1.93 1.71,-5.25 v 0 z m 21.57,-7.11 h 1.36 V 0 h -1.36 v -4.38 0 q -0.96,2.09 -2.83,3.29 v 0 0 Q 64.08,0.1 61.63,0.1 v 0 0 q -2.35,0 -4.21,-1.1 v 0 0 Q 55.55,-2.09 54.5,-4.01 v 0 0 q -1.05,-1.92 -1.05,-4.36 v 0 0 q 0,-2.45 1.05,-4.38 v 0 0 q 1.05,-1.93 2.9,-3.03 v 0 0 q 1.85,-1.09 4.2,-1.09 v 0 0 q 2.48,0 4.35,1.19 v 0 0 q 1.87,1.19 2.83,3.28 v 0 -11.49 m -6.99,22.73 v 0 q 2,0 3.6,-0.93 v 0 0 q 1.59,-0.94 2.49,-2.58 v 0 0 q 0.9,-1.64 0.9,-3.7 v 0 0 q 0,-2.06 -0.9,-3.71 v 0 0 q -0.9,-1.64 -2.49,-2.57 v 0 0 q -1.6,-0.94 -3.6,-0.94 v 0 0 q -1.99,0 -3.59,0.94 v 0 0 q -1.59,0.93 -2.51,2.57 v 0 0 q -0.92,1.65 -0.92,3.71 v 0 0 q 0,2.06 0.91,3.7 v 0 0 q 0.9,1.64 2.49,2.58 v 0 0 q 1.6,0.93 3.62,0.93 z m 21.58,-15.65 v 0 q 2.42,0 4.2,1.11 v 0 0 q 1.79,1.11 2.71,3.11 v 0 0 q 0.91,2 0.88,4.57 v 0 H 76.51 v 0 q 0.1,2.03 1,3.58 v 0 0 q 0.9,1.54 2.45,2.4 v 0 0 q 1.54,0.85 3.47,0.85 v 0 0 q 1.71,0 3.18,-0.6 v 0 0 q 1.46,-0.59 2.49,-1.72 v 0 l 0.77,0.87 v 0 q -1.19,1.29 -2.86,1.98 v 0 0 q -1.68,0.69 -3.64,0.69 v 0 0 q -2.35,0 -4.22,-1.08 v 0 0 q -1.87,-1.08 -2.91,-2.99 v 0 0 q -1.05,-1.92 -1.05,-4.33 v 0 0 q 0,-2.42 1.06,-4.35 v 0 0 q 1.07,-1.93 2.92,-3.01 v 0 0 q 1.85,-1.08 4.2,-1.08 v 0 m -6.83,7.6 h 13.4 v 0 q -0.19,-2.9 -1.97,-4.64 v 0 0 q -1.77,-1.74 -4.6,-1.74 v 0 0 q -2.83,0 -4.7,1.76 v 0 0 q -1.87,1.75 -2.13,4.62 z m 27.63,-7.6 v 0 q 3.06,0 4.78,1.76 v 0 0 q 1.73,1.75 1.73,4.81 v 0 V 0 h -1.36 v -9.98 0 q 0,-2.58 -1.44,-4.03 v 0 0 q -1.45,-1.45 -4.03,-1.45 v 0 0 q -2.87,0.07 -4.59,1.76 v 0 0 q -1.72,1.69 -1.95,4.62 v 0 V 0 h -1.35 v -16.78 h 1.35 v 4.29 0 q 0.84,-2.07 2.6,-3.16 v 0 0 q 1.75,-1.09 4.26,-1.16 z m 20.03,14.56 0.52,1.09 v 0 q -1.77,1.19 -3.58,1.19 v 0 0 q -1.8,0 -2.77,-1.17 v 0 0 q -0.96,-1.18 -0.96,-3.5 v 0 -10.56 h -2.45 v -1.16 h 2.45 v -4.15 h 1.29 v 4.15 h 5.69 v 1.16 h -5.69 v 10.4 0 q 0,3.51 2.6,3.51 v 0 0 q 1.48,0 2.9,-0.96 z m 12.79,-12.14 v 0 q -1.87,-1.2 -4.25,-1.2 v 0 0 q -1.87,0 -3.03,0.73 v 0 0 q -1.16,0.72 -1.16,2.17 v 0 0 q 0,0.97 0.58,1.61 v 0 0 q 0.58,0.65 1.45,1 v 0 0 q 0.87,0.36 2.35,0.81 v 0 0 q 1.77,0.54 2.83,1.03 v 0 0 q 1.06,0.48 1.82,1.38 v 0 0 q 0.76,0.9 0.76,2.38 v 0 0 q 0,2.23 -1.68,3.37 v 0 0 q -1.67,1.14 -4.15,1.14 v 0 0 q -1.77,0 -3.38,-0.61 v 0 0 q -1.61,-0.61 -2.77,-1.71 v 0 l 0.61,-1.03 v 0 q 1.1,1.03 2.56,1.58 v 0 0 q 1.47,0.55 3.04,0.55 v 0 0 q 1.94,0 3.21,-0.81 v 0 0 q 1.27,-0.8 1.27,-2.35 v 0 0 q 0,-1.03 -0.6,-1.69 v 0 0 q -0.59,-0.66 -1.49,-1.04 v 0 0 q -0.9,-0.39 -2.42,-0.84 v 0 0 q -1.74,-0.55 -2.77,-1.02 v 0 0 Q 128.74,-9.4 128,-10.29 v 0 0 q -0.74,-0.88 -0.74,-2.3 v 0 0 q 0,-2.09 1.56,-3.16 v 0 0 q 1.56,-1.06 3.95,-1.06 v 0 0 q 2.64,0 4.8,1.32 v 0 z"
             id="path19"
             inkscape:connector-curvature="0" />
        </g>
      </g>
      <!---->
    </g>
    <g
       style="display:inline"
       id="g203"
       transform="matrix(1.0072074,0,0,1.6306771,58.775107,144.09649)">
      <g
         style="display:inline"
         id="g201">
        <path
           id="path197"
           d="m 31.771,20.319 c 0,-0.474 -0.279,-0.87 -0.676,-1.066 V 11.9 c 0.09,-0.034 0.146,-0.119 0.145,-0.214 0,-0.095 -0.062,-0.179 -0.149,-0.21 L 15.92,6.125 c -0.194,-0.069 -0.406,-0.069 -0.601,0 L 0.15,11.477 c -0.089,0.031 -0.149,0.115 -0.15,0.21 -0.001,0.095 0.056,0.18 0.144,0.214 l 15.148,5.896 c 0.211,0.081 0.444,0.081 0.655,0 l 14.102,-5.492 v 6.947 c -0.396,0.195 -0.675,0.594 -0.675,1.065 0,0.492 0.3,0.919 0.729,1.102 -0.429,0.847 -0.729,2.585 -0.729,3.081 0,0.661 0.537,1.197 1.198,1.197 0.66,0 1.197,-0.536 1.197,-1.197 0,-0.496 -0.301,-2.234 -0.729,-3.081 0.43,-0.181 0.731,-0.608 0.731,-1.1 z"
           inkscape:connector-curvature="0"
           style="display:inline;fill:#ffffff" />
        <path
           id="path199"
           d="m 4.888,14.87 c 0.001,1.696 0.002,3.692 0.002,4.009 0,3.158 4.753,5.729 10.73,5.89 5.976,-0.161 10.729,-2.729 10.729,-5.89 0,-0.315 0,-2.312 0.002,-4.009 l -10.406,4.051 c -0.211,0.082 -0.444,0.082 -0.655,0 z"
           inkscape:connector-curvature="0"
           style="display:inline;fill:#ffffff" />
      </g>
    </g>
  </g>
</svg>
